<svg width="342" height="508" viewBox="0 0 342 508" fill="none" xmlns="http://www.w3.org/2000/svg">
  <path
    d="M13 161.5C13 74.5152 83.5152 4 170.5 4V4C257.485 4 328 74.5151 328 161.5V320C328 361.421 294.421 395 253 395H88C46.5786 395 13 361.421 13 320V161.5Z"
    fill="url(#paint0_linear_2_73)" />
  <path d="M0 508C0 445.592 50.5918 395 113 395H229C291.408 395 342 445.592 342 508V508H0V508Z" fill="#421212" />
  <path d="M128 319H214V393C214 416.748 194.748 436 171 436V436C147.252 436 128 416.748 128 393V319Z" fill="#381010" />
  <rect x="128" y="278" width="86" height="117" rx="43" fill="#805330" />
  <path
    d="M44 224.629C44 221.52 46.52 219 49.6287 219V219C58.3789 219 65.4723 226.093 65.4723 234.844V282.676C65.4723 285.064 63.5363 287 61.148 287V287C51.6774 287 44 279.323 44 269.852V224.629Z"
    fill="#805330" />
  <path
    d="M297 224.629C297 221.52 294.48 219 291.371 219V219C282.621 219 275.528 226.093 275.528 234.844V282.676C275.528 285.064 277.464 287 279.852 287V287C289.323 287 297 279.323 297 269.852V224.629Z"
    fill="#805330" />
  <path
    d="M49 231.406C49 228.42 51.4204 226 54.4062 226V226C62.8105 226 69.6236 232.813 69.6236 241.217V273.847C69.6236 276.14 67.7641 278 65.4702 278V278C56.374 278 49 270.626 49 261.53V231.406Z"
    fill="url(#paint1_linear_2_73)" />
  <path
    d="M292 231.406C292 228.42 289.58 226 286.594 226V226C278.189 226 271.376 232.813 271.376 241.217V273.847C271.376 276.14 273.236 278 275.53 278V278C284.626 278 292 270.626 292 261.53V231.406Z"
    fill="url(#paint2_linear_2_73)" />
  <path fill-rule="evenodd" clip-rule="evenodd"
    d="M54 224.5C54 160.159 106.159 108 170.5 108C234.841 108 287 160.159 287 224.5V251.5C287 270.878 282.269 289.15 273.899 305.226C270.819 311.142 266.293 316.139 261.218 320.467L224.278 351.974C219.189 356.316 213.523 360.006 207.173 362.111C195.642 365.932 183.313 368 170.5 368C157.382 368 144.771 365.832 133.004 361.834C126.793 359.724 121.249 356.093 116.258 351.836L79.9942 320.905C75.0179 316.66 70.5692 311.774 67.5053 305.996C58.8835 289.735 54 271.188 54 251.5V224.5Z"
    fill="#AE7141" />
  <path fill-rule="evenodd" clip-rule="evenodd"
    d="M54 173.5C54 109.159 106.159 57 170.5 57C234.841 57 287 109.159 287 173.5V200.5C287 219.878 282.269 238.15 273.899 254.226C270.819 260.142 266.293 265.139 261.218 269.467L224.278 300.974C219.189 305.316 213.523 309.006 207.173 311.111C195.642 314.932 183.313 317 170.5 317C157.382 317 144.771 314.832 133.004 310.834C126.793 308.724 121.249 305.093 116.258 300.836L79.9942 269.905C75.0179 265.66 70.5692 260.774 67.5053 254.996C58.8835 238.735 54 220.188 54 200.5V173.5Z"
    fill="#AE7141" />
  <path
    d="M87 220C87 210.059 95.0589 202 105 202H123C132.941 202 141 210.059 141 220V220C141 229.941 132.941 238 123 238H105C95.0589 238 87 229.941 87 220V220Z"
    fill="url(#paint3_linear_2_73)" fill-opacity="0.25" />
  <path
    d="M199 220C199 210.059 207.059 202 217 202H235C244.941 202 253 210.059 253 220V220C253 229.941 244.941 238 235 238H217C207.059 238 199 229.941 199 220V220Z"
    fill="url(#paint4_linear_2_73)" fill-opacity="0.25" />
  <path d="M87 180H54V213C54 194.775 68.7746 180 87 180Z" fill="#101013" />
  <path d="M87 180H54V213C54 194.775 68.7746 180 87 180Z" fill="#101013" />
  <path d="M254 180H287V213C287 194.775 272.225 180 254 180Z" fill="#101013" />
  <path d="M254 180H287V213C287 194.775 272.225 180 254 180Z" fill="#101013" />
  <path d="M13 157.5C13 70.5152 83.5152 0 170.5 0V0C257.485 0 328 70.5152 328 157.5V180H13V157.5Z" fill="#101013" />
  <path
    d="M82 214.07C82 208.843 86.2375 204.606 91.4648 204.606H112.169C127.851 204.606 140.563 217.318 140.563 233V233H100.93C90.4751 233 82 224.525 82 214.07V214.07Z"
    fill="url(#paint5_linear_2_73)" />
  <path
    d="M257.69 214.07C257.69 208.843 253.453 204.606 248.225 204.606H227.521C211.839 204.606 199.127 217.318 199.127 233V233H238.761C249.215 233 257.69 224.525 257.69 214.07V214.07Z"
    fill="url(#paint6_linear_2_73)" />
  <mask id="path-18-inside-1_2_73" fill="white">
    <path
      d="M82 214.07C82 208.843 86.2375 204.606 91.4648 204.606H112.169C127.851 204.606 140.563 217.318 140.563 233V233H100.93C90.4751 233 82 224.525 82 214.07V214.07Z" />
  </mask>
  <path
    d="M79 212.346C79 205.862 84.2562 200.606 90.74 200.606H108.169C126.06 200.606 140.563 215.109 140.563 233V233C140.563 219.527 127.851 208.606 112.169 208.606H91.4648C87.8944 208.606 85 211.052 85 214.07L79 212.346ZM140.563 233H82H140.563ZM99.6544 233C88.2473 233 79 223.753 79 212.346V212.346C79 205.862 84.2562 200.606 90.74 200.606L91.4648 208.606C87.8944 208.606 85 211.052 85 214.07C85 224.525 92.1319 233 100.93 233H99.6544ZM140.563 204.606V233V204.606Z"
    fill="url(#paint7_linear_2_73)" mask="url(#path-18-inside-1_2_73)" />
  <mask id="path-20-inside-2_2_73" fill="white">
    <path
      d="M257.69 214.07C257.69 208.843 253.453 204.606 248.225 204.606H227.521C211.839 204.606 199.127 217.318 199.127 233V233H238.761C249.215 233 257.69 224.525 257.69 214.07V214.07Z" />
  </mask>
  <path
    d="M260.69 212.346C260.69 205.862 255.434 200.606 248.95 200.606H231.521C213.63 200.606 199.127 215.109 199.127 233V233C199.127 219.527 211.839 208.606 227.521 208.606H248.225C251.796 208.606 254.69 211.052 254.69 214.07L260.69 212.346ZM199.127 233H257.69H199.127ZM240.036 233C251.443 233 260.69 223.753 260.69 212.346V212.346C260.69 205.862 255.434 200.606 248.95 200.606L248.225 208.606C251.796 208.606 254.69 211.052 254.69 214.07C254.69 224.525 247.558 233 238.761 233H240.036ZM199.127 204.606V233V204.606Z"
    fill="url(#paint8_linear_2_73)" mask="url(#path-20-inside-2_2_73)" />
  <g filter="url(#filter0_d_2_73)">
    <path fill-rule="evenodd" clip-rule="evenodd"
      d="M111.282 208.155C104.421 208.155 98.8592 213.717 98.8592 220.577C98.8592 227.438 104.421 233 111.282 233C118.142 233 123.704 227.438 123.704 220.577C123.704 219.419 123.546 218.298 123.249 217.234C122.28 219.711 119.869 221.465 117.049 221.465C113.374 221.465 110.394 218.485 110.394 214.81C110.394 211.99 112.149 209.579 114.625 208.61C113.562 208.314 112.44 208.155 111.282 208.155Z"
      fill="#332B2B" />
  </g>
  <g filter="url(#filter1_d_2_73)">
    <path fill-rule="evenodd" clip-rule="evenodd"
      d="M228.408 208.155C221.548 208.155 215.986 213.717 215.986 220.577C215.986 227.438 221.548 233 228.408 233C235.269 233 240.831 227.438 240.831 220.577C240.831 219.419 240.672 218.298 240.376 217.234C239.407 219.711 236.996 221.465 234.176 221.465C230.501 221.465 227.521 218.485 227.521 214.81C227.521 211.99 229.275 209.579 231.752 208.61C230.688 208.314 229.567 208.155 228.408 208.155Z"
      fill="#332B2B" />
  </g>
  <path
    d="M83 187.333C83 184.94 84.9401 183 87.3333 183H128.333C135.513 183 141.333 188.82 141.333 196V196H91.6667C86.8802 196 83 192.12 83 187.333V187.333Z"
    fill="#101013" />
  <path
    d="M258 187.333C258 184.94 256.06 183 253.667 183H212.667C205.487 183 199.667 188.82 199.667 196V196H249.333C254.12 196 258 192.12 258 187.333V187.333Z"
    fill="#101013" />
  <path
    d="M186.296 173.06C187.063 171.711 189.007 171.711 189.774 173.06L197.429 186.533C198.187 187.866 197.224 189.521 195.69 189.521H180.38C178.847 189.521 177.884 187.866 178.641 186.533L186.296 173.06Z"
    fill="#AE7141" />
  <path
    d="M152 269C152 259.059 160.059 251 170 251V251C179.941 251 188 259.059 188 269V269C188 278.941 179.941 287 170 287V287C160.059 287 152 278.941 152 269V269Z"
    fill="url(#paint9_linear_2_73)" />
  <g filter="url(#filter2_d_2_73)">
    <mask id="path-28-inside-3_2_73" fill="white">
      <path
        d="M158 322.5C158 319.462 160.462 317 163.5 317H177.5C180.538 317 183 319.462 183 322.5V322.5C183 325.538 180.538 328 177.5 328H163.5C160.462 328 158 325.538 158 322.5V322.5Z" />
    </mask>
    <path
      d="M158 322.5C158 319.462 160.462 317 163.5 317H177.5C180.538 317 183 319.462 183 322.5V322.5C183 325.538 180.538 328 177.5 328H163.5C160.462 328 158 325.538 158 322.5V322.5Z"
      fill="url(#paint10_linear_2_73)" shape-rendering="crispEdges" />
    <path
      d="M158 317H183H158ZM183 322.5C183 327.194 179.194 331 174.5 331H166.5C161.806 331 158 327.194 158 322.5C158 323.881 160.462 325 163.5 325H177.5C180.538 325 183 323.881 183 322.5ZM158 328V317V328ZM183 317V328V317Z"
      fill="#805330" mask="url(#path-28-inside-3_2_73)" />
  </g>
  <g filter="url(#filter3_d_2_73)">
    <path fill-rule="evenodd" clip-rule="evenodd"
      d="M165.683 311.511C164.654 310.704 163.475 310 162.168 310H161C157.415 310 154.319 312.096 152.872 315.13C151.921 317.124 153.791 319 156 319H184C186.209 319 188.079 317.124 187.128 315.13C185.681 312.096 182.585 310 179 310H177.832C176.525 310 175.346 310.704 174.317 311.511C173.128 312.444 171.629 313 170 313C168.371 313 166.872 312.444 165.683 311.511Z"
      fill="#421212" />
  </g>
  <rect x="54" y="280" width="2" height="10" rx="1" fill="#FF8A00" />
  <rect x="285" y="280" width="2" height="10" rx="1" fill="#FF8A00" />
  <rect x="288" y="217" width="2" height="11" rx="1" fill="#FF8A00" />
  <rect x="298.451" y="225.689" width="2" height="9.75872" rx="1" transform="rotate(60 298.451 225.689)"
    fill="#FF8A00" />
  <rect x="50" y="277" width="2" height="10" rx="1" fill="#FF8A00" />
  <rect x="46" y="273" width="2" height="10" rx="1" fill="#FF8A00" />
  <defs>
    <filter id="filter0_d_2_73" x="94.8592" y="208.155" width="32.8451" height="32.8451" filterUnits="userSpaceOnUse"
      color-interpolation-filters="sRGB">
      <feFlood flood-opacity="0" result="BackgroundImageFix" />
      <feColorMatrix in="SourceAlpha" type="matrix" values="0 0 0 0 0 0 0 0 0 0 0 0 0 0 0 0 0 0 127 0"
        result="hardAlpha" />
      <feOffset dy="4" />
      <feGaussianBlur stdDeviation="2" />
      <feComposite in2="hardAlpha" operator="out" />
      <feColorMatrix type="matrix" values="0 0 0 0 0 0 0 0 0 0 0 0 0 0 0 0 0 0 0.25 0" />
      <feBlend mode="normal" in2="BackgroundImageFix" result="effect1_dropShadow_2_73" />
      <feBlend mode="normal" in="SourceGraphic" in2="effect1_dropShadow_2_73" result="shape" />
    </filter>
    <filter id="filter1_d_2_73" x="211.986" y="208.155" width="32.8451" height="32.8451" filterUnits="userSpaceOnUse"
      color-interpolation-filters="sRGB">
      <feFlood flood-opacity="0" result="BackgroundImageFix" />
      <feColorMatrix in="SourceAlpha" type="matrix" values="0 0 0 0 0 0 0 0 0 0 0 0 0 0 0 0 0 0 127 0"
        result="hardAlpha" />
      <feOffset dy="4" />
      <feGaussianBlur stdDeviation="2" />
      <feComposite in2="hardAlpha" operator="out" />
      <feColorMatrix type="matrix" values="0 0 0 0 0 0 0 0 0 0 0 0 0 0 0 0 0 0 0.25 0" />
      <feBlend mode="normal" in2="BackgroundImageFix" result="effect1_dropShadow_2_73" />
      <feBlend mode="normal" in="SourceGraphic" in2="effect1_dropShadow_2_73" result="shape" />
    </filter>
    <filter id="filter2_d_2_73" x="154" y="317" width="33" height="19" filterUnits="userSpaceOnUse"
      color-interpolation-filters="sRGB">
      <feFlood flood-opacity="0" result="BackgroundImageFix" />
      <feColorMatrix in="SourceAlpha" type="matrix" values="0 0 0 0 0 0 0 0 0 0 0 0 0 0 0 0 0 0 127 0"
        result="hardAlpha" />
      <feOffset dy="4" />
      <feGaussianBlur stdDeviation="2" />
      <feComposite in2="hardAlpha" operator="out" />
      <feColorMatrix type="matrix" values="0 0 0 0 0 0 0 0 0 0 0 0 0 0 0 0 0 0 0.25 0" />
      <feBlend mode="normal" in2="BackgroundImageFix" result="effect1_dropShadow_2_73" />
      <feBlend mode="normal" in="SourceGraphic" in2="effect1_dropShadow_2_73" result="shape" />
    </filter>
    <filter id="filter3_d_2_73" x="148.618" y="310" width="42.7633" height="17" filterUnits="userSpaceOnUse"
      color-interpolation-filters="sRGB">
      <feFlood flood-opacity="0" result="BackgroundImageFix" />
      <feColorMatrix in="SourceAlpha" type="matrix" values="0 0 0 0 0 0 0 0 0 0 0 0 0 0 0 0 0 0 127 0"
        result="hardAlpha" />
      <feOffset dy="4" />
      <feGaussianBlur stdDeviation="2" />
      <feComposite in2="hardAlpha" operator="out" />
      <feColorMatrix type="matrix" values="0 0 0 0 0 0 0 0 0 0 0 0 0 0 0 0 0 0 0.25 0" />
      <feBlend mode="normal" in2="BackgroundImageFix" result="effect1_dropShadow_2_73" />
      <feBlend mode="normal" in="SourceGraphic" in2="effect1_dropShadow_2_73" result="shape" />
    </filter>
    <linearGradient id="paint0_linear_2_73" x1="170.5" y1="4" x2="170.5" y2="395" gradientUnits="userSpaceOnUse">
      <stop stop-color="#101013" />
      <stop offset="0.53125" stop-color="#101013" />
      <stop offset="1" />
    </linearGradient>
    <linearGradient id="paint1_linear_2_73" x1="59.3118" y1="226" x2="59.3118" y2="278" gradientUnits="userSpaceOnUse">
      <stop stop-color="#3A2515" />
      <stop offset="1" stop-color="#3A2515" stop-opacity="0" />
    </linearGradient>
    <linearGradient id="paint2_linear_2_73" x1="281.688" y1="226" x2="281.688" y2="278" gradientUnits="userSpaceOnUse">
      <stop stop-color="#3A2515" />
      <stop offset="1" stop-color="#3A2515" stop-opacity="0" />
    </linearGradient>
    <linearGradient id="paint3_linear_2_73" x1="114" y1="202" x2="114" y2="238" gradientUnits="userSpaceOnUse">
      <stop stop-color="#AE7141" stop-opacity="0" />
      <stop offset="0.5" stop-color="#AE7141" stop-opacity="0" />
      <stop offset="1" stop-color="#805330" />
    </linearGradient>
    <linearGradient id="paint4_linear_2_73" x1="226" y1="202" x2="226" y2="238" gradientUnits="userSpaceOnUse">
      <stop stop-color="#AE7141" stop-opacity="0" />
      <stop offset="0.5" stop-color="#AE7141" stop-opacity="0" />
      <stop offset="1" stop-color="#805330" />
    </linearGradient>
    <linearGradient id="paint5_linear_2_73" x1="82" y1="233" x2="140.563" y2="233" gradientUnits="userSpaceOnUse">
      <stop stop-color="#D9D9D9" />
      <stop offset="1" stop-color="#D9D9D9" stop-opacity="0" />
    </linearGradient>
    <linearGradient id="paint6_linear_2_73" x1="257.69" y1="233" x2="199.127" y2="233" gradientUnits="userSpaceOnUse">
      <stop stop-color="#D9D9D9" />
      <stop offset="1" stop-color="#D9D9D9" stop-opacity="0" />
    </linearGradient>
    <linearGradient id="paint7_linear_2_73" x1="111.282" y1="204.606" x2="111.282" y2="233"
      gradientUnits="userSpaceOnUse">
      <stop stop-color="#641818" />
      <stop offset="0.5" stop-color="#381010" />
      <stop offset="1" stop-color="#641818" stop-opacity="0" />
    </linearGradient>
    <linearGradient id="paint8_linear_2_73" x1="228.408" y1="204.606" x2="228.408" y2="233"
      gradientUnits="userSpaceOnUse">
      <stop stop-color="#641818" />
      <stop offset="0.5" stop-color="#381010" />
      <stop offset="1" stop-color="#641818" stop-opacity="0" />
    </linearGradient>
    <linearGradient id="paint9_linear_2_73" x1="170" y1="251" x2="170" y2="287" gradientUnits="userSpaceOnUse">
      <stop stop-color="#AE7141" stop-opacity="0" />
      <stop offset="0.5" stop-color="#AE7141" stop-opacity="0" />
      <stop offset="1" stop-color="#805330" />
    </linearGradient>
    <linearGradient id="paint10_linear_2_73" x1="170.5" y1="317" x2="170.5" y2="328" gradientUnits="userSpaceOnUse">
      <stop stop-color="#AE7141" stop-opacity="0" />
      <stop offset="0.5" stop-color="#AE7141" stop-opacity="0" />
      <stop offset="1" stop-color="#805330" />
    </linearGradient>
  </defs>
</svg>