{
    "asset" : {
        "generator" : "Khronos glTF Blender I/O v1.7.33",
        "version" : "2.0"
    },
    "scene" : 0,
    "scenes" : [
        {
            "name" : "Scene",
            "nodes" : [
                0
            ]
        }
    ],
    "nodes" : [
        {
            "mesh" : 0,
            "name" : "194079_23_02_07_14_51_56",
            "rotation" : [
                0.7071068286895752,
                0,
                0,
                0.7071068286895752
            ],
            "translation" : [
                0,
                0.5238834619522095,
                0
            ]
        }
    ],
    "materials" : [
        {
            "doubleSided" : true,
            "name" : "material_0",
            "pbrMetallicRoughness" : {
                "baseColorFactor" : [
                    0.010616487823426723,
                    0.7940324544906616,
                    0,
                    1
                ],
                "metallicFactor" : 0
            }
        }
    ],
    "meshes" : [
        {
            "name" : "194079_23_02_07_14_51_56",
            "primitives" : [
                {
                    "attributes" : {
                        "POSITION" : 0,
                        "NORMAL" : 1,
                        "TEXCOORD_0" : 2
                    },
                    "indices" : 3,
                    "material" : 0
                }
            ]
        }
    ],
    "accessors" : [
        {
            "bufferView" : 0,
            "componentType" : 5126,
            "count" : 5700,
            "max" : [
                2.696320056915283,
                0.2462420016527176,
                3.3598999977111816
            ],
            "min" : [
                -3.8415400981903076,
                -0.24619099497795105,
                -2.1539599895477295
            ],
            "type" : "VEC3"
        },
        {
            "bufferView" : 1,
            "componentType" : 5126,
            "count" : 5700,
            "type" : "VEC3"
        },
        {
            "bufferView" : 2,
            "componentType" : 5126,
            "count" : 5700,
            "type" : "VEC2"
        },
        {
            "bufferView" : 3,
            "componentType" : 5123,
            "count" : 5700,
            "type" : "SCALAR"
        }
    ],
    "bufferViews" : [
        {
            "buffer" : 0,
            "byteLength" : 68400,
            "byteOffset" : 0
        },
        {
            "buffer" : 0,
            "byteLength" : 68400,
            "byteOffset" : 68400
        },
        {
            "buffer" : 0,
            "byteLength" : 45600,
            "byteOffset" : 136800
        },
        {
            "buffer" : 0,
            "byteLength" : 11400,
            "byteOffset" : 182400
        }
    ],
    "buffers" : [
        {
            "byteLength" : 193800,
            "uri" : "data:application/octet-stream;base64,"
        }
    ]
}
