{
    "asset" : {
        "copyright" : "Fronrich Puno 2023",
        "generator" : "Khronos glTF Blender I/O v1.7.33",
        "version" : "2.0"
    },
    "scene" : 0,
    "scenes" : [
        {
            "name" : "Scene",
            "nodes" : [
                0
            ]
        }
    ],
    "nodes" : [
        {
            "mesh" : 0,
            "name" : "Quad Sphere"
        }
    ],
    "materials" : [
        {
            "doubleSided" : true,
            "name" : "Color",
            "pbrMetallicRoughness" : {
                "baseColorFactor" : [
                    0.7939105033874512,
                    0.36623382568359375,
                    0.4570736587047577,
                    1
                ],
                "metallicFactor" : 0,
                "roughnessFactor" : 0
            }
        }
    ],
    "meshes" : [
        {
            "name" : "Quad Sphere",
            "primitives" : [
                {
                    "attributes" : {
                        "POSITION" : 0,
                        "NORMAL" : 1
                    },
                    "indices" : 2,
                    "material" : 0
                }
            ]
        }
    ],
    "accessors" : [
        {
            "bufferView" : 0,
            "componentType" : 5126,
            "count" : 98304,
            "max" : [
                1.273675560951233,
                1.5272376537322998,
                1.4181174039840698
            ],
            "min" : [
                -1.178629755973816,
                -0.9826006293296814,
                -0.8464601039886475
            ],
            "type" : "VEC3"
        },
        {
            "bufferView" : 1,
            "componentType" : 5126,
            "count" : 98304,
            "type" : "VEC3"
        },
        {
            "bufferView" : 2,
            "componentType" : 5125,
            "count" : 147456,
            "type" : "SCALAR"
        }
    ],
    "bufferViews" : [
        {
            "buffer" : 0,
            "byteLength" : 1179648,
            "byteOffset" : 0
        },
        {
            "buffer" : 0,
            "byteLength" : 1179648,
            "byteOffset" : 1179648
        },
        {
            "buffer" : 0,
            "byteLength" : 589824,
            "byteOffset" : 2359296
        }
    ],
    "buffers" : [
        {
            "byteLength" : 2949120,
            "uri" : "data:application/octet-stream;base64,"
        }
    ]
}
