{
    "asset" : {
        "generator" : "Khronos glTF Blender I/O v1.7.33",
        "version" : "2.0"
    },
    "scene" : 0,
    "scenes" : [
        {
            "name" : "Scene",
            "nodes" : [
                0,
                1
            ]
        }
    ],
    "nodes" : [
        {
            "mesh" : 0,
            "name" : "194176_23_02_07_16_34_23_1",
            "rotation" : [
                0.6813768744468689,
                0.3115687370300293,
                0.059891700744628906,
                0.6595935225486755
            ],
            "translation" : [
                -1.598509430885315,
                2.7527918815612793,
                0.3194867968559265
            ]
        },
        {
            "mesh" : 1,
            "name" : "194176_23_02_07_16_34_23_2",
            "rotation" : [
                0.6813768744468689,
                0.3115687370300293,
                0.059891700744628906,
                0.6595935225486755
            ],
            "translation" : [
                -1.598509430885315,
                2.7527918815612793,
                0.3194867968559265
            ]
        }
    ],
    "materials" : [
        {
            "doubleSided" : true,
            "name" : "194176_23_02_07_16_34_23_1",
            "pbrMetallicRoughness" : {
                "baseColorFactor" : [
                    0.31951025128364563,
                    0.25950145721435547,
                    0.1460445076227188,
                    1
                ],
                "metallicFactor" : 0
            }
        },
        {
            "doubleSided" : true,
            "name" : "194176_23_02_07_16_34_23_2",
            "pbrMetallicRoughness" : {
                "baseColorFactor" : [
                    0.5426257252693176,
                    0.4904404580593109,
                    0.7954687476158142,
                    1
                ],
                "metallicFactor" : 0
            }
        }
    ],
    "meshes" : [
        {
            "name" : "194176_23_02_07_16_34_23_1",
            "primitives" : [
                {
                    "attributes" : {
                        "POSITION" : 0,
                        "NORMAL" : 1,
                        "TEXCOORD_0" : 2
                    },
                    "indices" : 3,
                    "material" : 0
                }
            ]
        },
        {
            "name" : "194176_23_02_07_16_34_23_2",
            "primitives" : [
                {
                    "attributes" : {
                        "POSITION" : 4,
                        "NORMAL" : 5,
                        "TEXCOORD_0" : 6
                    },
                    "indices" : 7,
                    "material" : 1
                }
            ]
        }
    ],
    "accessors" : [
        {
            "bufferView" : 0,
            "componentType" : 5126,
            "count" : 6578,
            "max" : [
                1.953199028968811,
                0.9270179867744446,
                5.00009298324585
            ],
            "min" : [
                -2.020404100418091,
                -0.8004580140113831,
                1.3450000286102295
            ],
            "type" : "VEC3"
        },
        {
            "bufferView" : 1,
            "componentType" : 5126,
            "count" : 6578,
            "type" : "VEC3"
        },
        {
            "bufferView" : 2,
            "componentType" : 5126,
            "count" : 6578,
            "type" : "VEC2"
        },
        {
            "bufferView" : 3,
            "componentType" : 5123,
            "count" : 6672,
            "type" : "SCALAR"
        },
        {
            "bufferView" : 4,
            "componentType" : 5126,
            "count" : 5142,
            "max" : [
                2.232208013534546,
                0.7681699991226196,
                4.733500957489014
            ],
            "min" : [
                -2.14035701751709,
                -0.6955900192260742,
                1.451936960220337
            ],
            "type" : "VEC3"
        },
        {
            "bufferView" : 5,
            "componentType" : 5126,
            "count" : 5142,
            "type" : "VEC3"
        },
        {
            "bufferView" : 6,
            "componentType" : 5126,
            "count" : 5142,
            "type" : "VEC2"
        },
        {
            "bufferView" : 7,
            "componentType" : 5123,
            "count" : 5142,
            "type" : "SCALAR"
        }
    ],
    "bufferViews" : [
        {
            "buffer" : 0,
            "byteLength" : 78936,
            "byteOffset" : 0
        },
        {
            "buffer" : 0,
            "byteLength" : 78936,
            "byteOffset" : 78936
        },
        {
            "buffer" : 0,
            "byteLength" : 52624,
            "byteOffset" : 157872
        },
        {
            "buffer" : 0,
            "byteLength" : 13344,
            "byteOffset" : 210496
        },
        {
            "buffer" : 0,
            "byteLength" : 61704,
            "byteOffset" : 223840
        },
        {
            "buffer" : 0,
            "byteLength" : 61704,
            "byteOffset" : 285544
        },
        {
            "buffer" : 0,
            "byteLength" : 41136,
            "byteOffset" : 347248
        },
        {
            "buffer" : 0,
            "byteLength" : 10284,
            "byteOffset" : 388384
        }
    ],
    "buffers" : [
        {
            "byteLength" : 398668,
            "uri" : "data:application/octet-stream;base64,"
        }
    ]
}
