{
    "asset" : {
        "generator" : "Khronos glTF Blender I/O v1.7.33",
        "version" : "2.0"
    },
    "scene" : 0,
    "scenes" : [
        {
            "name" : "Scene",
            "nodes" : [
                0,
                1,
                2
            ]
        }
    ],
    "nodes" : [
        {
            "mesh" : 0,
            "name" : "194218_23_02_07_17_05_34_1",
            "rotation" : [
                0.7071068286895752,
                0,
                0,
                0.7071068286895752
            ],
            "scale" : [
                0.19847404956817627,
                0.19847404956817627,
                0.19847404956817627
            ],
            "translation" : [
                0.28218525648117065,
                -0.9021996855735779,
                0
            ]
        },
        {
            "mesh" : 1,
            "name" : "194218_23_02_07_17_05_34_2",
            "rotation" : [
                0.7071068286895752,
                0,
                0,
                0.7071068286895752
            ],
            "scale" : [
                0.19847404956817627,
                0.19847404956817627,
                0.19847404956817627
            ],
            "translation" : [
                0.28218525648117065,
                -0.9021996855735779,
                0
            ]
        },
        {
            "mesh" : 2,
            "name" : "194218_23_02_07_17_05_34_3",
            "rotation" : [
                0.7071068286895752,
                0,
                0,
                0.7071068286895752
            ],
            "scale" : [
                0.19847404956817627,
                0.19847404956817627,
                0.19847404956817627
            ],
            "translation" : [
                0.28218525648117065,
                -0.9021996855735779,
                0
            ]
        }
    ],
    "materials" : [
        {
            "doubleSided" : true,
            "name" : "194218_23_02_07_17_05_34_1",
            "pbrMetallicRoughness" : {
                "baseColorFactor" : [
                    0.28347015380859375,
                    0.18586760759353638,
                    0.11335133761167526,
                    1
                ],
                "metallicFactor" : 0
            }
        },
        {
            "doubleSided" : true,
            "name" : "194218_23_02_07_17_05_34_2",
            "pbrMetallicRoughness" : {
                "baseColorFactor" : [
                    0.15103550255298615,
                    0.19883085787296295,
                    0.234922394156456,
                    1
                ],
                "metallicFactor" : 0
            }
        },
        {
            "doubleSided" : true,
            "name" : "194218_23_02_07_17_05_34_3",
            "pbrMetallicRoughness" : {
                "baseColorFactor" : [
                    0.4221372902393341,
                    0.26574864983558655,
                    0.14017930626869202,
                    1
                ],
                "metallicFactor" : 0
            }
        }
    ],
    "meshes" : [
        {
            "name" : "194218_23_02_07_17_05_34_1",
            "primitives" : [
                {
                    "attributes" : {
                        "POSITION" : 0,
                        "NORMAL" : 1,
                        "TEXCOORD_0" : 2
                    },
                    "indices" : 3,
                    "material" : 0
                }
            ]
        },
        {
            "name" : "194218_23_02_07_17_05_34_2",
            "primitives" : [
                {
                    "attributes" : {
                        "POSITION" : 4,
                        "NORMAL" : 5,
                        "TEXCOORD_0" : 6
                    },
                    "indices" : 7,
                    "material" : 1
                }
            ]
        },
        {
            "name" : "194218_23_02_07_17_05_34_3",
            "primitives" : [
                {
                    "attributes" : {
                        "POSITION" : 8,
                        "NORMAL" : 9,
                        "TEXCOORD_0" : 10
                    },
                    "indices" : 11,
                    "material" : 2
                }
            ]
        }
    ],
    "accessors" : [
        {
            "bufferView" : 0,
            "componentType" : 5126,
            "count" : 31236,
            "max" : [
                0.7203850150108337,
                6.934789180755615,
                4.868185043334961
            ],
            "min" : [
                -3.551995038986206,
                -0.0007220000261440873,
                -0.23456600308418274
            ],
            "type" : "VEC3"
        },
        {
            "bufferView" : 1,
            "componentType" : 5126,
            "count" : 31236,
            "type" : "VEC3"
        },
        {
            "bufferView" : 2,
            "componentType" : 5126,
            "count" : 31236,
            "type" : "VEC2"
        },
        {
            "bufferView" : 3,
            "componentType" : 5123,
            "count" : 31236,
            "type" : "SCALAR"
        },
        {
            "bufferView" : 4,
            "componentType" : 5126,
            "count" : 5070,
            "max" : [
                0.6061570048332214,
                2.8860390186309814,
                1.0753639936447144
            ],
            "min" : [
                -3.311306953430176,
                -1.6354130506515503,
                -3.0874340534210205
            ],
            "type" : "VEC3"
        },
        {
            "bufferView" : 5,
            "componentType" : 5126,
            "count" : 5070,
            "type" : "VEC3"
        },
        {
            "bufferView" : 6,
            "componentType" : 5126,
            "count" : 5070,
            "type" : "VEC2"
        },
        {
            "bufferView" : 7,
            "componentType" : 5123,
            "count" : 5070,
            "type" : "SCALAR"
        },
        {
            "bufferView" : 8,
            "componentType" : 5126,
            "count" : 10674,
            "max" : [
                0.5021960139274597,
                2.316365957260132,
                0.33476200699806213
            ],
            "min" : [
                -3.3343710899353027,
                -5.321148872375488,
                -13.451885223388672
            ],
            "type" : "VEC3"
        },
        {
            "bufferView" : 9,
            "componentType" : 5126,
            "count" : 10674,
            "type" : "VEC3"
        },
        {
            "bufferView" : 10,
            "componentType" : 5126,
            "count" : 10674,
            "type" : "VEC2"
        },
        {
            "bufferView" : 11,
            "componentType" : 5123,
            "count" : 10674,
            "type" : "SCALAR"
        }
    ],
    "bufferViews" : [
        {
            "buffer" : 0,
            "byteLength" : 374832,
            "byteOffset" : 0
        },
        {
            "buffer" : 0,
            "byteLength" : 374832,
            "byteOffset" : 374832
        },
        {
            "buffer" : 0,
            "byteLength" : 249888,
            "byteOffset" : 749664
        },
        {
            "buffer" : 0,
            "byteLength" : 62472,
            "byteOffset" : 999552
        },
        {
            "buffer" : 0,
            "byteLength" : 60840,
            "byteOffset" : 1062024
        },
        {
            "buffer" : 0,
            "byteLength" : 60840,
            "byteOffset" : 1122864
        },
        {
            "buffer" : 0,
            "byteLength" : 40560,
            "byteOffset" : 1183704
        },
        {
            "buffer" : 0,
            "byteLength" : 10140,
            "byteOffset" : 1224264
        },
        {
            "buffer" : 0,
            "byteLength" : 128088,
            "byteOffset" : 1234404
        },
        {
            "buffer" : 0,
            "byteLength" : 128088,
            "byteOffset" : 1362492
        },
        {
            "buffer" : 0,
            "byteLength" : 85392,
            "byteOffset" : 1490580
        },
        {
            "buffer" : 0,
            "byteLength" : 21348,
            "byteOffset" : 1575972
        }
    ],
    "buffers" : [
        {
            "byteLength" : 1597320,
            "uri" : "data:application/octet-stream;base64,"
        }
    ]
}
