{
    "asset" : {
        "generator" : "Khronos glTF Blender I/O v1.7.33",
        "version" : "2.0"
    },
    "scene" : 0,
    "scenes" : [
        {
            "name" : "Scene",
            "nodes" : [
                0,
                1,
                2,
                3,
                4,
                5
            ]
        }
    ],
    "nodes" : [
        {
            "mesh" : 0,
            "name" : "194134_23_02_07_15_55_15_0",
            "rotation" : [
                0.7071068286895752,
                0,
                0,
                0.7071068286895752
            ],
            "translation" : [
                0,
                -11.44301986694336,
                -13.246074676513672
            ]
        },
        {
            "mesh" : 1,
            "name" : "194134_23_02_07_15_55_15_1",
            "rotation" : [
                0.7071068286895752,
                0,
                0,
                0.7071068286895752
            ],
            "translation" : [
                0,
                -11.44301986694336,
                -13.246074676513672
            ]
        },
        {
            "mesh" : 2,
            "name" : "194134_23_02_07_15_55_15_2",
            "rotation" : [
                0.7071068286895752,
                0,
                0,
                0.7071068286895752
            ],
            "translation" : [
                0,
                -11.44301986694336,
                -13.246074676513672
            ]
        },
        {
            "mesh" : 3,
            "name" : "194134_23_02_07_15_55_15_3",
            "rotation" : [
                0.7071068286895752,
                0,
                0,
                0.7071068286895752
            ],
            "translation" : [
                0,
                -11.44301986694336,
                -13.246074676513672
            ]
        },
        {
            "mesh" : 4,
            "name" : "194134_23_02_07_15_55_15_4",
            "rotation" : [
                0.7071068286895752,
                0,
                0,
                0.7071068286895752
            ],
            "translation" : [
                0,
                -11.44301986694336,
                -13.246074676513672
            ]
        },
        {
            "mesh" : 5,
            "name" : "194134_23_02_07_15_55_15_5",
            "rotation" : [
                0.7071068286895752,
                0,
                0,
                0.7071068286895752
            ],
            "translation" : [
                0,
                -11.44301986694336,
                -13.246074676513672
            ]
        }
    ],
    "materials" : [
        {
            "doubleSided" : true,
            "name" : "194134_23_02_07_15_55_15_0",
            "pbrMetallicRoughness" : {
                "baseColorFactor" : [
                    0.42302417755126953,
                    0.2303471863269806,
                    0.1380985975265503,
                    1
                ],
                "metallicFactor" : 0
            }
        },
        {
            "doubleSided" : true,
            "name" : "194134_23_02_07_15_55_15_1",
            "pbrMetallicRoughness" : {
                "baseColorFactor" : [
                    0.7645335793495178,
                    0.2602972090244293,
                    0.7888587117195129,
                    1
                ],
                "metallicFactor" : 0
            }
        },
        {
            "doubleSided" : true,
            "name" : "194134_23_02_07_15_55_15_2",
            "pbrMetallicRoughness" : {
                "baseColorFactor" : [
                    0.7912982702255249,
                    0.3864296078681946,
                    0.6938719153404236,
                    1
                ],
                "metallicFactor" : 0
            }
        },
        {
            "doubleSided" : true,
            "name" : "194134_23_02_07_15_55_15_3",
            "pbrMetallicRoughness" : {
                "baseColorFactor" : [
                    0.7902620434761047,
                    0.23514869809150696,
                    0.6810312867164612,
                    1
                ],
                "metallicFactor" : 0
            }
        },
        {
            "doubleSided" : true,
            "name" : "194134_23_02_07_15_55_15_4",
            "pbrMetallicRoughness" : {
                "baseColorFactor" : [
                    0.7889043688774109,
                    0.49382197856903076,
                    0.684677004814148,
                    1
                ],
                "metallicFactor" : 0
            }
        },
        {
            "doubleSided" : true,
            "name" : "194134_23_02_07_15_55_15_5",
            "pbrMetallicRoughness" : {
                "baseColorFactor" : [
                    0.7912982702255249,
                    0.3864296078681946,
                    0.6938719153404236,
                    1
                ],
                "metallicFactor" : 0
            }
        }
    ],
    "meshes" : [
        {
            "name" : "194134_23_02_07_15_55_15_0",
            "primitives" : [
                {
                    "attributes" : {
                        "POSITION" : 0,
                        "NORMAL" : 1,
                        "TEXCOORD_0" : 2
                    },
                    "indices" : 3,
                    "material" : 0
                }
            ]
        },
        {
            "name" : "194134_23_02_07_15_55_15_1",
            "primitives" : [
                {
                    "attributes" : {
                        "POSITION" : 4,
                        "NORMAL" : 5,
                        "TEXCOORD_0" : 6
                    },
                    "indices" : 7,
                    "material" : 1
                }
            ]
        },
        {
            "name" : "194134_23_02_07_15_55_15_2",
            "primitives" : [
                {
                    "attributes" : {
                        "POSITION" : 8,
                        "NORMAL" : 9,
                        "TEXCOORD_0" : 10
                    },
                    "indices" : 11,
                    "material" : 2
                }
            ]
        },
        {
            "name" : "194134_23_02_07_15_55_15_3",
            "primitives" : [
                {
                    "attributes" : {
                        "POSITION" : 12,
                        "NORMAL" : 13,
                        "TEXCOORD_0" : 14
                    },
                    "indices" : 15,
                    "material" : 3
                }
            ]
        },
        {
            "name" : "194134_23_02_07_15_55_15_4",
            "primitives" : [
                {
                    "attributes" : {
                        "POSITION" : 16,
                        "NORMAL" : 17,
                        "TEXCOORD_0" : 18
                    },
                    "indices" : 19,
                    "material" : 4
                }
            ]
        },
        {
            "name" : "194134_23_02_07_15_55_15_5",
            "primitives" : [
                {
                    "attributes" : {
                        "POSITION" : 20,
                        "NORMAL" : 21,
                        "TEXCOORD_0" : 22
                    },
                    "indices" : 23,
                    "material" : 5
                }
            ]
        }
    ],
    "accessors" : [
        {
            "bufferView" : 0,
            "componentType" : 5126,
            "count" : 3090,
            "max" : [
                1.0005019903182983,
                26.044755935668945,
                -4.559537887573242
            ],
            "min" : [
                -1.0008039474487305,
                5.543750762939453,
                -23.38357925415039
            ],
            "type" : "VEC3"
        },
        {
            "bufferView" : 1,
            "componentType" : 5126,
            "count" : 3090,
            "type" : "VEC3"
        },
        {
            "bufferView" : 2,
            "componentType" : 5126,
            "count" : 3090,
            "type" : "VEC2"
        },
        {
            "bufferView" : 3,
            "componentType" : 5123,
            "count" : 3090,
            "type" : "SCALAR"
        },
        {
            "bufferView" : 4,
            "componentType" : 5126,
            "count" : 2250,
            "max" : [
                2.900604009628296,
                1.054847002029419,
                3.83589506149292
            ],
            "min" : [
                -5.841451168060303,
                -1.1512060165405273,
                -7.215826988220215
            ],
            "type" : "VEC3"
        },
        {
            "bufferView" : 5,
            "componentType" : 5126,
            "count" : 2250,
            "type" : "VEC3"
        },
        {
            "bufferView" : 6,
            "componentType" : 5126,
            "count" : 2250,
            "type" : "VEC2"
        },
        {
            "bufferView" : 7,
            "componentType" : 5123,
            "count" : 2250,
            "type" : "SCALAR"
        },
        {
            "bufferView" : 8,
            "componentType" : 5126,
            "count" : 2250,
            "max" : [
                -6.9177727699279785,
                2.3412749767303467,
                -2.154845952987671
            ],
            "min" : [
                -10.228137969970703,
                -1.1291970014572144,
                -8.081548690795898
            ],
            "type" : "VEC3"
        },
        {
            "bufferView" : 9,
            "componentType" : 5126,
            "count" : 2250,
            "type" : "VEC3"
        },
        {
            "bufferView" : 10,
            "componentType" : 5126,
            "count" : 2250,
            "type" : "VEC2"
        },
        {
            "bufferView" : 11,
            "componentType" : 5123,
            "count" : 2250,
            "type" : "SCALAR"
        },
        {
            "bufferView" : 12,
            "componentType" : 5126,
            "count" : 2250,
            "max" : [
                7.03685188293457,
                6.788209915161133,
                0.3466250002384186
            ],
            "min" : [
                3.689117908477783,
                3.3189070224761963,
                -5.649697780609131
            ],
            "type" : "VEC3"
        },
        {
            "bufferView" : 13,
            "componentType" : 5126,
            "count" : 2250,
            "type" : "VEC3"
        },
        {
            "bufferView" : 14,
            "componentType" : 5126,
            "count" : 2250,
            "type" : "VEC2"
        },
        {
            "bufferView" : 15,
            "componentType" : 5123,
            "count" : 2250,
            "type" : "SCALAR"
        },
        {
            "bufferView" : 16,
            "componentType" : 5126,
            "count" : 2250,
            "max" : [
                -0.265747994184494,
                5.303932189941406,
                -10.162104606628418
            ],
            "min" : [
                -2.540508985519409,
                3.0901451110839844,
                -13.8330659866333
            ],
            "type" : "VEC3"
        },
        {
            "bufferView" : 17,
            "componentType" : 5126,
            "count" : 2250,
            "type" : "VEC3"
        },
        {
            "bufferView" : 18,
            "componentType" : 5126,
            "count" : 2250,
            "type" : "VEC2"
        },
        {
            "bufferView" : 19,
            "componentType" : 5123,
            "count" : 2250,
            "type" : "SCALAR"
        },
        {
            "bufferView" : 20,
            "componentType" : 5126,
            "count" : 2250,
            "max" : [
                -4.979343891143799,
                7.6367387771606445,
                2.267237901687622
            ],
            "min" : [
                -6.35359001159668,
                5.055856227874756,
                -1.3934979438781738
            ],
            "type" : "VEC3"
        },
        {
            "bufferView" : 21,
            "componentType" : 5126,
            "count" : 2250,
            "type" : "VEC3"
        },
        {
            "bufferView" : 22,
            "componentType" : 5126,
            "count" : 2250,
            "type" : "VEC2"
        },
        {
            "bufferView" : 23,
            "componentType" : 5123,
            "count" : 2250,
            "type" : "SCALAR"
        }
    ],
    "bufferViews" : [
        {
            "buffer" : 0,
            "byteLength" : 37080,
            "byteOffset" : 0
        },
        {
            "buffer" : 0,
            "byteLength" : 37080,
            "byteOffset" : 37080
        },
        {
            "buffer" : 0,
            "byteLength" : 24720,
            "byteOffset" : 74160
        },
        {
            "buffer" : 0,
            "byteLength" : 6180,
            "byteOffset" : 98880
        },
        {
            "buffer" : 0,
            "byteLength" : 27000,
            "byteOffset" : 105060
        },
        {
            "buffer" : 0,
            "byteLength" : 27000,
            "byteOffset" : 132060
        },
        {
            "buffer" : 0,
            "byteLength" : 18000,
            "byteOffset" : 159060
        },
        {
            "buffer" : 0,
            "byteLength" : 4500,
            "byteOffset" : 177060
        },
        {
            "buffer" : 0,
            "byteLength" : 27000,
            "byteOffset" : 181560
        },
        {
            "buffer" : 0,
            "byteLength" : 27000,
            "byteOffset" : 208560
        },
        {
            "buffer" : 0,
            "byteLength" : 18000,
            "byteOffset" : 235560
        },
        {
            "buffer" : 0,
            "byteLength" : 4500,
            "byteOffset" : 253560
        },
        {
            "buffer" : 0,
            "byteLength" : 27000,
            "byteOffset" : 258060
        },
        {
            "buffer" : 0,
            "byteLength" : 27000,
            "byteOffset" : 285060
        },
        {
            "buffer" : 0,
            "byteLength" : 18000,
            "byteOffset" : 312060
        },
        {
            "buffer" : 0,
            "byteLength" : 4500,
            "byteOffset" : 330060
        },
        {
            "buffer" : 0,
            "byteLength" : 27000,
            "byteOffset" : 334560
        },
        {
            "buffer" : 0,
            "byteLength" : 27000,
            "byteOffset" : 361560
        },
        {
            "buffer" : 0,
            "byteLength" : 18000,
            "byteOffset" : 388560
        },
        {
            "buffer" : 0,
            "byteLength" : 4500,
            "byteOffset" : 406560
        },
        {
            "buffer" : 0,
            "byteLength" : 27000,
            "byteOffset" : 411060
        },
        {
            "buffer" : 0,
            "byteLength" : 27000,
            "byteOffset" : 438060
        },
        {
            "buffer" : 0,
            "byteLength" : 18000,
            "byteOffset" : 465060
        },
        {
            "buffer" : 0,
            "byteLength" : 4500,
            "byteOffset" : 483060
        }
    ],
    "buffers" : [
        {
            "byteLength" : 487560,
            "uri" : "data:application/octet-stream;base64,"
        }
    ]
}
